<?xml version="1.0" encoding="UTF-8" standalone="no"?>
<!DOCTYPE svg PUBLIC "-//W3C//DTD SVG 1.1//EN" "http://www.w3.org/Graphics/SVG/1.1/DTD/svg11.dtd">
<svg width="100%" height="100%" viewBox="0 0 15 15" version="1.1" xmlns="http://www.w3.org/2000/svg" xmlns:xlink="http://www.w3.org/1999/xlink" xml:space="preserve" xmlns:serif="http://www.serif.com/" style="fill-rule:evenodd;clip-rule:evenodd;stroke-linecap:round;stroke-linejoin:round;stroke-miterlimit:1.5;">
    <g id="Group-23" serif:id="Group 23" transform="matrix(1,0,0,1,1.5,0)">
        <g transform="matrix(1.27103,0,0,1.27103,-1.62615,-2.03269)">
            <circle cx="6" cy="7.5" r="5.5" style="fill:none;stroke:black;stroke-width:0.79px;"/>
        </g>
        <g transform="matrix(1,0,0,1,-3.76803,4.09573)">
            <path d="M9.274,5.294L9.274,3.134L9.874,3.134C10.386,3.134 10.792,2.992 11.092,2.708C11.392,2.424 11.542,2.046 11.542,1.574C11.542,1.102 11.392,0.724 11.092,0.44C10.792,0.156 10.382,0.014 9.862,0.014L8.362,0.014L8.362,-1.006L9.862,-1.006C10.422,-1.006 10.908,-0.9 11.32,-0.688C11.732,-0.476 12.052,-0.178 12.28,0.206C12.508,0.59 12.622,1.046 12.622,1.574C12.622,2.03 12.526,2.44 12.334,2.804C12.142,3.168 11.876,3.458 11.536,3.674C11.196,3.89 10.802,4.01 10.354,4.034L10.354,5.294L9.274,5.294ZM9.622,7.814C9.414,7.814 9.242,7.746 9.106,7.61C8.97,7.474 8.902,7.302 8.902,7.094C8.902,6.886 8.97,6.714 9.106,6.578C9.242,6.442 9.414,6.374 9.622,6.374L9.982,6.374C10.214,6.374 10.392,6.44 10.516,6.572C10.64,6.704 10.702,6.874 10.702,7.082C10.702,7.29 10.634,7.464 10.498,7.604C10.362,7.744 10.19,7.814 9.982,7.814L9.622,7.814Z" style="fill-rule:nonzero;"/>
        </g>
    </g>
</svg>
