<?xml version="1.0" encoding="UTF-8" standalone="no"?>
<!DOCTYPE svg PUBLIC "-//W3C//DTD SVG 1.1//EN" "http://www.w3.org/Graphics/SVG/1.1/DTD/svg11.dtd">
<svg width="100%" height="100%" viewBox="0 0 15 15" version="1.1" xmlns="http://www.w3.org/2000/svg" xmlns:xlink="http://www.w3.org/1999/xlink" xml:space="preserve" xmlns:serif="http://www.serif.com/" style="fill-rule:evenodd;clip-rule:evenodd;stroke-linejoin:round;stroke-miterlimit:2;">
    <g transform="matrix(0.589634,0,0,0.589183,1.38778e-17,8.88178e-16)">
        <path d="M12.715,25.44C19.678,25.44 25.44,19.678 25.44,12.725C25.44,5.762 19.668,0 12.705,0C5.752,0 0,5.762 0,12.725C0,19.678 5.762,25.44 12.715,25.44ZM12.715,23.623C6.68,23.623 1.826,18.76 1.826,12.725C1.826,6.68 6.67,1.826 12.705,1.826C18.75,1.826 23.613,6.68 23.613,12.725C23.613,18.76 18.76,23.623 12.715,23.623Z" style="fill-rule:nonzero;"/>
        <path d="M12.461,15.303C13.008,15.303 13.33,14.961 13.33,14.522L13.33,14.307C13.33,13.574 13.73,13.125 14.639,12.51C15.889,11.68 16.67,10.947 16.67,9.521C16.67,7.559 14.912,6.436 12.822,6.436C10.713,6.436 9.336,7.49 9.033,8.682C8.975,8.877 8.945,9.063 8.945,9.268C8.945,9.756 9.316,10.029 9.688,10.029C10.068,10.029 10.313,9.844 10.498,9.561L10.674,9.297C11.016,8.486 11.768,7.91 12.754,7.91C14.004,7.91 14.795,8.604 14.795,9.609C14.795,10.469 14.297,10.918 13.154,11.709C12.217,12.363 11.602,13.027 11.602,14.209L11.602,14.443C11.602,15.01 11.914,15.303 12.461,15.303ZM12.441,18.965C13.105,18.965 13.682,18.428 13.682,17.764C13.682,17.09 13.115,16.563 12.441,16.563C11.758,16.563 11.201,17.1 11.201,17.764C11.201,18.418 11.768,18.965 12.441,18.965Z" style="fill-rule:nonzero;"/>
    </g>
</svg>
