<?xml version="1.0" encoding="UTF-8" standalone="no"?>
<!DOCTYPE svg PUBLIC "-//W3C//DTD SVG 1.1//EN" "http://www.w3.org/Graphics/SVG/1.1/DTD/svg11.dtd">
<svg width="100%" height="100%" viewBox="0 0 15 15" version="1.1" xmlns="http://www.w3.org/2000/svg" xmlns:xlink="http://www.w3.org/1999/xlink" xml:space="preserve" xmlns:serif="http://www.serif.com/" style="fill-rule:evenodd;clip-rule:evenodd;stroke-linejoin:round;stroke-miterlimit:2;">
    <g transform="matrix(0.621599,0,0,0.621599,4.35253,1.13226)">
        <path d="M0.918,20.479C1.416,20.479 1.826,20.088 1.826,19.59L1.826,0.908C1.826,0.4 1.416,0.01 0.918,0.01C0.41,0.01 0,0.4 0,0.908L0,19.59C0,20.088 0.41,20.479 0.918,20.479ZM9.219,20.479C9.717,20.479 10.127,20.088 10.127,19.59L10.127,0.908C10.127,0.4 9.717,0.01 9.219,0.01C8.711,0.01 8.301,0.4 8.301,0.908L8.301,19.59C8.301,20.088 8.711,20.479 9.219,20.479Z" style="fill-rule:nonzero;"/>
    </g>
</svg>
