<?xml version="1.0" encoding="UTF-8" standalone="no"?>
<!DOCTYPE svg PUBLIC "-//W3C//DTD SVG 1.1//EN" "http://www.w3.org/Graphics/SVG/1.1/DTD/svg11.dtd">
<svg width="100%" height="100%" viewBox="0 0 15 15" version="1.1" xmlns="http://www.w3.org/2000/svg" xmlns:xlink="http://www.w3.org/1999/xlink" xml:space="preserve" xmlns:serif="http://www.serif.com/" style="fill-rule:evenodd;clip-rule:evenodd;stroke-linejoin:round;stroke-miterlimit:2;">
    <g transform="matrix(0.158967,0,0,0.158967,-1.08874,13.1042)">
        <path d="M7.715,-35.059C6.055,-32.764 6.787,-30.664 9.863,-30.664L14.893,-30.664C17.188,-11.23 34.082,4.15 54.004,4.15C65.674,4.15 76.221,-1.074 83.447,-9.277C85.107,-11.133 84.863,-13.525 83.154,-14.746C81.445,-15.967 79.394,-15.527 77.93,-13.916C72.119,-7.373 63.574,-3.271 54.004,-3.271C37.793,-3.271 24.609,-15.137 22.412,-30.664L27.637,-30.664C30.664,-30.664 31.445,-32.764 29.834,-35.01L21.143,-47.412C19.824,-49.316 17.773,-49.365 16.406,-47.412L7.715,-35.059ZM24.609,-61.279C22.949,-59.424 23.193,-57.08 24.902,-55.859C26.66,-54.639 28.711,-54.981 30.176,-56.641C36.035,-63.135 44.531,-67.236 54.004,-67.236C70.215,-67.236 83.447,-55.371 85.596,-39.844L80.371,-39.844C77.344,-39.844 76.611,-37.744 78.223,-35.449L86.914,-23.096C88.232,-21.191 90.283,-21.143 91.65,-23.096L100.342,-35.4C102.002,-37.744 101.27,-39.844 98.193,-39.844L93.164,-39.844C90.869,-59.277 73.975,-74.658 54.004,-74.658C42.432,-74.658 31.885,-69.482 24.609,-61.279Z" style="fill-rule:nonzero;"/>
    </g>
</svg>
