<?xml version="1.0" encoding="UTF-8" standalone="no"?>
<!DOCTYPE svg PUBLIC "-//W3C//DTD SVG 1.1//EN" "http://www.w3.org/Graphics/SVG/1.1/DTD/svg11.dtd">
<svg width="100%" height="100%" viewBox="0 0 18 18" version="1.1" xmlns="http://www.w3.org/2000/svg" xmlns:xlink="http://www.w3.org/1999/xlink" xml:space="preserve" xmlns:serif="http://www.serif.com/" style="fill-rule:evenodd;clip-rule:evenodd;stroke-linejoin:round;stroke-miterlimit:2;">
    <g id="Group-20" serif:id="Group 20">
        <g id="Group-16" serif:id="Group 16">
            <g id="Intersect">
                <path d="M15.565,9.105L16.234,8.765L15.565,9.105ZM15.565,9.895L16.234,10.235L15.565,9.895ZM2.855,9.445C3.971,7.251 6.249,5.75 8.876,5.75L8.876,4.25C5.663,4.25 2.88,6.087 1.518,8.765L2.855,9.445ZM8.876,5.75C11.503,5.75 13.781,7.251 14.897,9.445L16.234,8.765C14.872,6.087 12.089,4.25 8.876,4.25L8.876,5.75ZM14.897,9.555C13.781,11.749 11.503,13.25 8.876,13.25L8.876,14.75C12.089,14.75 14.872,12.913 16.234,10.235L14.897,9.555ZM8.876,13.25C6.249,13.25 3.971,11.749 2.855,9.555L1.518,10.235C2.88,12.913 5.663,14.75 8.876,14.75L8.876,13.25ZM14.897,9.445C14.914,9.479 14.914,9.52 14.897,9.555L16.234,10.235C16.469,9.773 16.469,9.227 16.234,8.765L14.897,9.445ZM1.518,8.765C1.283,9.227 1.283,9.773 1.518,10.235L2.855,9.555C2.837,9.521 2.837,9.48 2.855,9.445L1.518,8.765Z" style="fill-rule:nonzero;"/>
            </g>
            <circle id="Ellipse-40" serif:id="Ellipse 40" cx="8.876" cy="9.5" r="2.5"/>
        </g>
    </g>
</svg>
