<svg width="18" height="18" viewBox="0 0 18 18" fill="none" xmlns="http://www.w3.org/2000/svg">
<g id="Group 20">
<g id="Group 16">
<g id="Intersect">
<mask id="path-1-inside-1_85_5" fill="white">
<path fill-rule="evenodd" clip-rule="evenodd" d="M2.1866 9.89519C2.06032 9.64689 2.06032 9.35326 2.18659 9.10496C3.42541 6.66891 5.95579 5 8.87597 5C11.7961 5 14.3264 6.66884 15.5653 9.10482C15.6915 9.35312 15.6916 9.64674 15.5653 9.89504C14.3265 12.3311 11.7961 14 8.8759 14C5.95578 14 3.42544 12.3312 2.1866 9.89519Z"/>
</mask>
<path d="M15.5653 9.10482L16.2338 8.76483L15.5653 9.10482ZM15.5653 9.89504L16.2338 10.235L15.5653 9.89504ZM2.85511 9.44493C3.97099 7.25063 6.24889 5.75 8.87597 5.75V4.25C5.66269 4.25 2.87983 6.08719 1.51807 8.76499L2.85511 9.44493ZM8.87597 5.75C11.503 5.75 13.7809 7.25057 14.8968 9.4448L16.2338 8.76483C14.872 6.08712 12.0892 4.25 8.87597 4.25V5.75ZM14.8968 9.55507C13.7809 11.7494 11.503 13.25 8.8759 13.25V14.75C12.0892 14.75 14.872 12.9128 16.2338 10.235L14.8968 9.55507ZM8.8759 13.25C6.24888 13.25 3.97102 11.7494 2.85511 9.5552L1.51808 10.2352C2.87987 12.9129 5.66269 14.75 8.8759 14.75V13.25ZM14.8968 9.4448C14.9144 9.47947 14.9144 9.5204 14.8968 9.55507L16.2338 10.235C16.4687 9.77307 16.4687 9.22676 16.2338 8.76483L14.8968 9.4448ZM1.51807 8.76499C1.28316 9.22693 1.28316 9.77324 1.51808 10.2352L2.85511 9.5552C2.83748 9.52053 2.83748 9.4796 2.85511 9.44493L1.51807 8.76499Z" fill="black" mask="url(#path-1-inside-1_85_5)"/>
</g>
<circle id="Ellipse 40" cx="8.87598" cy="9.5" r="2.5" fill="black"/>
</g>
</g>
</svg>
